<svg id="Capa_1" data-name="Capa 1" xmlns="http://www.w3.org/2000/svg" viewBox="0 0 99.99 100.01"><defs><style>.cls-1{fill:#aad047;}</style></defs><title>automation</title><path class="cls-1" d="M41.27,22.54a2,2,0,0,0-2.53-1.1A30.71,30.71,0,0,0,19.3,50a2,2,0,1,0,3.91,0,26.65,26.65,0,0,1,17-24.93A2,2,0,0,0,41.27,22.54Z" transform="translate(0 0)"/><path class="cls-1" d="M62.86,48.07a2,2,0,0,0-2,2A10.94,10.94,0,1,1,50,39.09a2,2,0,0,0,0-3.91A14.84,14.84,0,1,0,64.82,50,2,2,0,0,0,62.86,48.07Z" transform="translate(0 0)"/><path class="cls-1" d="M70.1,48a2,2,0,0,0-2,2V50a2,2,0,1,0,3.91,0V50A2,2,0,0,0,70.1,48Z" transform="translate(0 0)"/><path class="cls-1" d="M62.2,65.81a2,2,0,1,0,.57,1.38A2,2,0,0,0,62.2,65.81Z" transform="translate(0 0)"/><path class="cls-1" d="M93.36,70.82a6.6,6.6,0,0,0-3.11.77l-5.78-5.78a2,2,0,0,0-1.38-.57H68.85a2,2,0,0,0,0,3.91H82.28l5.21,5.21a6.64,6.64,0,1,0,5.87-3.54Zm0,9.37a2.73,2.73,0,1,1,2.73-2.73A2.74,2.74,0,0,1,93.36,80.19Z" transform="translate(0 0)"/><path class="cls-1" d="M93.36,15.91a6.64,6.64,0,0,0-5.87,9.74l-5.21,5.21H60.91a22.07,22.07,0,0,0-9-2.83V24.5H72.54a2,2,0,0,0,1.71-1l5.93-10.76a6.65,6.65,0,1,0-3-2.61L71.39,20.6H51.95V2a2,2,0,0,0-2-2H41.24a2,2,0,0,0-2,2V8a42.91,42.91,0,0,0-11.46,4.75L23.57,8.49a2,2,0,0,0-2.76,0L8.46,20.85a2,2,0,0,0,0,2.76l4.25,4.25A42.92,42.92,0,0,0,8,39.32H2a2,2,0,0,0-2,2V58.74a2,2,0,0,0,2,2H8a42.91,42.91,0,0,0,4.75,11.46L8.47,76.4a2,2,0,0,0,0,2.76L20.81,91.52a2,2,0,0,0,1.38.57h0a2,2,0,0,0,1.38-.57l4.26-4.26A42.93,42.93,0,0,0,39.29,92v6a2,2,0,0,0,2,2H50a1.94,1.94,0,0,0,2-1.95V79.32H71.39l5.78,10.55a6.64,6.64,0,1,0,3-2.61L74.26,76.43a2,2,0,0,0-1.71-1H51.95V70.16a2,2,0,0,0-2-2,18.2,18.2,0,0,1-.36-36.39,2,2,0,0,0,.34,0A18.26,18.26,0,0,1,67,43.69a2,2,0,1,0,3.66-1.36,21.94,21.94,0,0,0-4.76-7.56H83.09a2,2,0,0,0,1.38-.57l5.78-5.78a6.64,6.64,0,1,0,3.11-12.51ZM82.81,3.9a2.73,2.73,0,1,1-2.73,2.73A2.74,2.74,0,0,1,82.81,3.9Zm0,86.72a2.73,2.73,0,1,1-2.73,2.73A2.74,2.74,0,0,1,82.81,90.63ZM48,28a22.1,22.1,0,0,0,0,44V96.1H43.19V90.46a2,2,0,0,0-1.54-1.91,39.08,39.08,0,0,1-13-5.41,2,2,0,0,0-2.44.26l-4,4-9.58-9.59,4-4a2,2,0,0,0,.26-2.44,39.07,39.07,0,0,1-5.41-13,2,2,0,0,0-1.91-1.54H3.91V43.23H9.52a2,2,0,0,0,1.91-1.54,39.08,39.08,0,0,1,5.41-13,2,2,0,0,0-.26-2.44l-4-4,9.58-9.59,4,4a2,2,0,0,0,2.44.26,39.08,39.08,0,0,1,13-5.41,2,2,0,0,0,1.54-1.91V3.91H48V28Zm45.31-2.71a2.73,2.73,0,1,1,2.73-2.73A2.74,2.74,0,0,1,93.36,25.28Z" transform="translate(0 0)"/><path class="cls-1" d="M93.36,43.39A6.65,6.65,0,0,0,87,48.08H81.25a2,2,0,0,0,0,3.91H87a6.64,6.64,0,1,0,6.35-8.59Zm0,9.37A2.73,2.73,0,1,1,96.09,50,2.74,2.74,0,0,1,93.36,52.77Z" transform="translate(0 0)"/></svg>