<?xml version="1.0" encoding="utf-8"?>
<!-- Generator: Adobe Illustrator 23.0.3, SVG Export Plug-In . SVG Version: 6.00 Build 0)  -->
<svg version="1.1" xmlns="http://www.w3.org/2000/svg" xmlns:xlink="http://www.w3.org/1999/xlink" x="0px" y="0px"
	 viewBox="0 0 512 512" style="enable-background:new 0 0 512 512;" xml:space="preserve">
<style type="text/css">
	.st0{display:none;}
	.st1{display:inline;}
	.st2{fill:#81BE4D;}
	.st3{display:inline;fill:#81BE4D;}
</style>
<g id="_x37_" class="st0">
	<g class="st1">
		<g>
			<path class="st2" d="M127,135.6c-3.2,0-4.8,0-6.4,1.6c0,1.6-1.6,4.8-1.6,6.4c0,3.2,0,4.8,1.6,6.4c1.6,0,4.8,1.6,6.4,1.6
				c3.2,0,4.8,0,6.4-1.6c1.6-1.6,1.6-4.8,1.6-6.4c0-3.2,0-4.8-1.6-6.4C131.8,137.2,128.6,135.6,127,135.6z"/>
			<path class="st2" d="M130.2,52.7c-8,0-15.9,1.6-22.3,8c-6.4,4.8-9.6,12.8-6.4,20.7c0,4.8,3.2,8,8,8s8-3.2,8-8c0-3.2,0-8,3.2-9.6
				s6.4-3.2,9.6-3.2c6.4,0,11.2,4.8,11.2,11.2s-3.2,11.2-9.6,12.8c-6.4,1.6-11.2,8-11.2,14.4v4.8c0,4.8,3.2,8,8,8c4.8,0,8-3.2,8-8
				v-1.6c12.8-4.8,22.3-15.9,20.7-30.3S144.6,54.3,130.2,52.7z"/>
			<path class="st2" d="M261,143.6l-36.7-36.7V63.9c0-23.9-20.7-44.7-44.7-44.7H68c-23.9,0-44.7,20.7-44.7,44.7V142
				c0,23.9,20.7,44.7,44.7,44.7h111.6c19.1,0,35.1-11.2,41.5-27.1h33.5c3.2,0,6.4-3.2,8-6.4C264.2,150,264.2,146.8,261,143.6z
				 M213.1,140.4c-3.2,0-6.4,3.2-8,6.4c-1.6,12.8-12.8,20.7-25.5,20.7H68c-15.9,0-27.1-11.2-28.7-25.5V63.9
				c0-14.4,12.8-27.1,27.1-27.1h111.6c14.4,0,27.1,12.8,27.1,27.1v46.2c0,3.2,1.6,4.8,3.2,6.4l23.9,23.9H213.1z"/>
		</g>
		<path class="st2" d="M233.9,454.6c0-47.8-36.7-86.1-82.9-90.9c11.2-8,19.1-23.9,19.1-39.9v-28.7c0-17.5-11.2-30.3-22.3-30.3h-1.6
			h-1.6c0,0-14.4,6.4-30.3,14.4c-33.5,15.9-33.5,15.9-35.1,20.7v4.8v17.5c0,15.9,8,30.3,19.1,39.9c-46.2,4.8-82.9,43.1-82.9,90.9
			v23.9c0,8,6.4,14.4,14.4,14.4h70.2c4.8,0,8-3.2,8-8c0-4.8-3.2-8-8-8H36.1v-19.1c0-41.5,31.9-75,73.4-75h35.1
			c39.9,0,73.4,33.5,73.4,75v20.7h-63.8c-4.8,0-8,3.2-8,8c0,4.8,3.2,8,8,8h67c8,0,14.4-6.4,14.4-14.4L233.9,454.6z M127,354.1
			c-15.9,0-28.7-14.4-28.7-31.9v-15.9c9.6-4.8,35.1-17.5,52.6-25.5c1.6,1.6,3.2,6.4,3.2,12.8c0,0,0,28.7,1.6,28.7
			C155.7,339.8,143,354.1,127,354.1z"/>
		<g>
			<path class="st2" d="M412.5,379.6l-23.9,23.9l-11.2-11.2c-3.2-3.2-9.6-3.2-12.8,0c-3.2,3.2-3.2,9.6,0,12.8l17.5,17.5
				c1.6,3.2,4.8,3.2,6.4,3.2c3.2,0,4.8-1.6,6.4-3.2l30.3-30.3c3.2-4.8,3.2-9.6,0-12.8S415.7,376.4,412.5,379.6z"/>
			<path class="st2" d="M450.8,320.6H334.3c-19.1,0-35.1,11.2-43.1,27.1h-35.1c-3.2,0-6.4,1.6-8,4.8c-1.6,3.2-1.6,6.4,1.6,9.6
				l38.3,36.7v43.1c0,23.9,20.7,44.7,46.2,44.7h116.4c25.5,0,46.2-20.7,46.2-44.7v-76.5C497,341.4,476.3,320.6,450.8,320.6z
				 M479.5,440.2c0,14.4-12.8,27.1-28.7,27.1H334.3c-15.9,0-28.7-12.8-28.7-27.1V394c0-3.2-1.6-4.8-3.2-6.4l-25.5-23.9h20.7
				c4.8,0,8-3.2,9.6-6.4c3.2-12.8,14.4-20.7,27.1-20.7h116.4c15.9,0,28.7,12.8,28.7,25.5V440.2z"/>
		</g>
		<g>
			<g>
				<path class="st2" d="M316.8,240.9c-3.2,0-4.8,1.6-6.4,3.2c-1.6,1.6-3.2,3.2-3.2,6.4s1.6,4.8,3.2,6.4c1.6,1.6,3.2,3.2,6.4,3.2
					c3.2,0,4.8-1.6,6.4-3.2c1.6-1.6,3.2-3.2,3.2-6.4s-1.6-4.8-3.2-6.4S320,240.9,316.8,240.9z M390.2,169.1h-1.6
					c9.6-11.2,15.9-23.9,15.9-39.9V81.4c0-1.6,0-1.6,0-1.6c0-1.6,0-3.2,0-3.2V46.3c0-6.4-4.8-9.6-9.6-9.6h-60.6
					c-25.5,0-46.2,20.7-46.2,46.2h-1.6v43.1c0,15.9,6.4,30.3,15.9,39.9h-1.6c-41.5,4.8-75,39.9-75,82.9v38.3c0,6.4,4.8,9.6,9.6,9.6
					h220.1c6.4,0,9.6-4.8,9.6-9.6v-35.1C465.1,209,433.2,172.3,390.2,169.1z M345.5,165.9c-22.3,0-39.9-17.5-39.9-39.9v-14.4h60.6
					c6.4,0,14.4-1.6,19.1-4.8v19.1C385.4,148.4,367.8,165.9,345.5,165.9z M364.6,183.5l-19.1,19.1l-20.7-19.1H364.6z M304,83
					c0-15.9,12.8-28.7,28.7-28.7h51v20.7c0,11.2-8,19.1-19.1,19.1H304V83z M447.6,279.2H245v-17.5h36.7c6.4,0,9.6-3.2,9.6-9.6
					s-4.8-9.6-9.6-9.6H245c1.6-28.7,25.5-54.2,55.8-57.4l38.3,36.7c1.6,1.6,3.2,3.2,6.4,3.2c1.6,0,3.2-1.6,6.4-1.6l38.3-38.3
					c31.9,4.8,57.4,31.9,57.4,65.4V279.2z"/>
			</g>
		</g>
		<path class="st2" d="M125.4,231.3L125.4,231.3c-35.1,0-63.8,28.7-63.8,62.2V343c0,3.2,0,4.8,0,8s-1.6,8-4.8,9.6l0,0
			c-4.8,1.6-11.2,0-12.8-6.4c0-3.2-1.6-8-1.6-11.2v-49.4c0-44.7,35.1-79.7,79.7-79.7h1.6c44.7,0,79.7,35.1,79.7,79.7V343
			c0,3.2,0,8-1.6,11.2c-1.6,4.8-8,8-12.8,6.4l0,0c-3.2-1.6-6.4-4.8-4.8-9.6c0-3.2,0-4.8,0-8v-49.4
			C189.2,258.4,160.5,231.3,125.4,231.3z"/>
		<path class="st2" d="M131.8,489.7c-1.6,1.6-3.2,3.2-6.4,3.2c-3.2,0-4.8-1.6-6.4-3.2c-1.6-1.6-3.2-3.2-3.2-6.4
			c0-3.2,1.6-4.8,3.2-6.4c1.6-1.6,3.2-3.2,6.4-3.2c3.2,0,4.8,1.6,6.4,3.2c1.6,1.6,3.2,3.2,3.2,6.4
			C135,486.5,133.4,488.1,131.8,489.7z"/>
	</g>
</g>
<g id="_x36_" class="st0">
	<g class="st1">
		<rect x="74.9" y="317.1" class="st2" width="76.4" height="13.2"/>
		<rect x="165.9" y="317.1" class="st2" width="76.4" height="13.2"/>
		<rect x="297" y="140.7" class="st2" width="175.8" height="13.2"/>
		<rect x="297" y="110" class="st2" width="175.8" height="13.2"/>
		<path class="st2" d="M281,300.5c-13.2,0-24.1,10.8-24.1,24.1c0,13.2,10.8,24.1,24.1,24.1c13.2,0,24.1-10.8,24.1-24.1
			c0-6.5-2.6-12.5-6.9-16.9l30.3-45.8c2.3,0.8,4.9,1.2,7.5,1.2c6.6,0,12.6-2.6,17-7l33.6,22.4c-0.9,2.4-1.3,5.2-1.3,7.9
			c0,13.2,10.8,24.1,24.1,24.1c13.3,0,24.1-10.8,24.1-24.1c0-6.9-2.9-13.1-7.6-17.5l19.4-38.9c1.3,0.2,2.7,0.4,4.2,0.4
			c13.2,0,24.1-10.8,24.1-24.1c0-13.2-10.8-24.1-24.1-24.1s-24.1,10.8-24.1,24.1c0,7.1,3,13.4,7.9,17.9l-19.3,38.6
			c-1.5-0.3-3.2-0.5-4.8-0.5c-5.7,0-11,2-15,5.3l-34.8-23.2c0.4-1.7,0.6-3.6,0.6-5.5c0-13.2-10.8-24.1-24.1-24.1
			c-13.2,0-24.1,10.8-24.1,24.1c0,5.9,2.1,11.3,5.6,15.4l-30.8,46.8C284.8,300.8,282.9,300.5,281,300.5z M449.3,195.4
			c6,0,10.9,4.9,10.9,10.9c0,6-4.9,10.9-10.9,10.9c-6,0-10.9-4.9-10.9-10.9C438.4,200.3,443.3,195.4,449.3,195.4z M281,335.4
			c-6,0-10.9-4.9-10.9-10.9s4.9-10.9,10.9-10.9s10.9,4.9,10.9,10.9C291.8,330.6,287,335.4,281,335.4z M409.2,275.5
			c6,0,10.9,4.9,10.9,10.9c0,6-4.9,10.9-10.9,10.9c-6,0-10.9-4.9-10.9-10.9S403.2,275.5,409.2,275.5z M335.9,228.1
			c6,0,10.9,4.9,10.9,10.9c0,6-4.9,10.9-10.9,10.9S325,245,325,239C325,233,329.9,228.1,335.9,228.1z"/>
		<path class="st2" d="M209.8,262.9c-2,1.3-4.2,2.6-6.3,3.9l6.5,11.5c2.3-1.3,4.8-2.7,7-4.3L209.8,262.9z"/>
		<path class="st2" d="M228.6,247.9c-1.8,1.8-3.8,3.6-5.7,5.3l8.6,10c2.1-1.9,4.4-3.9,6.4-5.9L228.6,247.9z"/>
		<path class="st2" d="M255,236.6l-11-7.4c-1.6,2.4-3.4,4.8-5.1,7l10.4,8.1C251.3,241.9,253.3,239.2,255,236.6z"/>
		<path class="st2" d="M267.7,213.3l-12.2-5.1c-1,2.5-2.2,5-3.5,7.4l11.8,5.9C265.2,218.8,266.5,216,267.7,213.3z"/>
		<path class="st2" d="M257.1,117.5c6.8,18,9.4,36.7,7.3,55.7c-0.7,7.3-2.2,14.6-4.3,21.8l12.7,3.7c2.3-7.8,3.9-16,4.7-24.1
			c2.1-21-0.6-41.8-8.1-61.7c-12-31.5-35.2-57.3-65.4-72.6l-6,11.8C225.4,65.8,246.2,89,257.1,117.5z"/>
		<path class="st2" d="M42.5,161.4c0,55.6,45.2,100.9,100.9,100.9s100.9-45.2,100.9-100.9h-13.2c0,48.4-39.3,87.7-87.7,87.7
			s-87.7-39.3-87.7-87.7c0-44.7,33.7-81.7,77-87l-7.2,7.2l8.8,8.8l20.9-20.9l-21.1-21.1l-8.8,8.8l4.3,4.3
			C80.5,68.2,42.5,110.3,42.5,161.4z"/>
		<path class="st2" d="M83.2,55.4l-6.5-11.5c-2.3,1.3-4.8,2.7-7,4.3l7.2,11.1C78.9,57.9,81.1,56.6,83.2,55.4z"/>
		<path class="st2" d="M63.9,69l-8.6-10c-2.1,1.8-4.3,3.9-6.4,5.9l9.2,9.5C59.9,72.4,61.9,70.7,63.9,69z"/>
		<path class="st2" d="M47.6,85.9l-10.4-8.1c-1.9,2.5-3.9,5.2-5.7,7.8l11,7.3C44.2,90.5,45.9,88.2,47.6,85.9z"/>
		<path class="st2" d="M34.5,106.6l-11.8-5.9c-1.3,2.6-2.6,5.5-3.8,8.2l12.2,5.1C32.2,111.5,33.3,109,34.5,106.6z"/>
		<path class="st2" d="M82.5,281.8l6-11.8c-27.1-13.7-48.1-37-59-65.5c-9.6-25.2-10.6-52.1-2.9-77.9l-12.7-3.8
			c-8.4,28.6-7.3,58.4,3.3,86.4C29.2,240.8,52.4,266.7,82.5,281.8z"/>
		<path class="st2" d="M145.4,94.3c-7,0-12.7,5.7-12.7,12.7v4.6c-14.3,2-25.4,14.4-25.4,29.3v4.3c0,16.4,13.3,29.6,29.6,29.6h16.9
			c2.3,0,4.3,1.9,4.3,4.3v4.3c0,2.3-1.9,4.3-4.3,4.3h-16.9c-2.3,0-4.3-1.9-4.3-4.3v-4.3h-25.4v4.3c0,14.9,11.1,27.2,25.4,29.3v4.6
			c0,7,5.7,12.7,12.7,12.7c7,0,12.7-5.7,12.7-12.7v-4.6c14.3-2,25.4-14.4,25.4-29.3v-4.3c0-16.4-13.3-29.6-29.6-29.6H137
			c-2.3,0-4.3-1.9-4.3-4.3v-4.3c0-2.3,1.9-4.3,4.3-4.3h16.9c2.3,0,4.3,1.9,4.3,4.3v4.3h25.4v-4.3c0-14.9-11.1-27.2-25.4-29.3V107
			C158,100,152.3,94.3,145.4,94.3z M174.6,136.6h-8.7c-1.7-4.9-6.4-8.4-12-8.4H137c-7,0-12.7,5.7-12.7,12.7v4.3
			c0,7,5.7,12.7,12.7,12.7h16.9c11.7,0,21.1,9.5,21.1,21.1v4.3c0,11.7-9.5,21.1-21.1,21.1h-4.3v12.7c0,2.3-1.9,4.3-4.3,4.3
			c-2.3,0-4.3-1.9-4.3-4.3v-12.7h-4.3c-10.2,0-18.7-7.3-20.7-16.9h8.7c1.7,4.9,6.4,8.4,12,8.4h16.9c7,0,12.7-5.7,12.7-12.7v-4.3
			c0-7-5.7-12.7-12.7-12.7h-16.9c-11.7,0-21.1-9.5-21.1-21.1v-4.3c0-11.7,9.5-21.1,21.1-21.1h4.3V107c0-2.3,1.9-4.3,4.3-4.3
			c2.3,0,4.3,1.9,4.3,4.3v12.7h4.3C164,119.6,172.6,126.9,174.6,136.6z"/>
		<path class="st2" d="M472.8,62H245.7c4,4.2,7.8,8.5,11.3,13.2h215.8c10,0,18,8.1,18,18v269.7H57v-86c-4.7-3.5-9-7.1-13.2-11.1
			v129.1c0,17.2,14,31.2,31.2,31.2h104.6V460h-33.3v13.2h255.1V460h-33.1V426h104.6c17.2,0,31.2-14,31.2-31.2V93.2
			C504,76,490,62,472.8,62z M355,459.9H192.8v-33.9H355L355,459.9L355,459.9z M472.8,412.7H75c-10,0-18-8.1-18-18v-18.8h433.8v18.8
			C490.8,404.7,482.8,412.7,472.8,412.7z"/>
	</g>
</g>
<g id="_x35_" class="st0">
	<path class="st3" d="M446.6,126.1l15.4-25L412.8,52l-25,15.4c-5.4-2.6-10.9-4.9-16.6-6.9l-6.9-28.6h-69.5L288,60.5
		c-5.7,1.9-11.3,4.3-16.6,6.9l-25-15.4l-49.2,49.2l15.4,25c-2.6,5.4-4.9,10.9-6.9,16.6l-22.1,5.3H68.2c-20.1,0-36.3,16.2-36.3,36.3
		v217.8c0,20.1,16.2,36.3,36.3,36.3h94.4v29h-29V482h246.9v-14.5h-29v-29h94.4c20.1,0,36.3-16.2,36.3-36.3v-183v-34.8v-34.8
		l-28.6-6.8C451.6,137.1,449.2,131.5,446.6,126.1z M336.9,467.6H177.1v-29h159.7V467.6z M445.8,424H68.2c-12,0-21.8-9.8-21.8-21.8
		V395h421.1v7.3C467.6,414.2,457.8,424,445.8,424z M467.6,380.4H46.4V184.4c0-12,9.8-21.8,21.8-21.8h108.9v56.5l28.6,6.8
		c1.9,5.7,4.3,11.3,6.9,16.6l-15.4,25l49.2,49.2l25-15.4c5.4,2.6,10.9,4.9,16.6,6.9l6.8,28.6h69.5l6.8-28.6
		c5.7-1.9,11.3-4.3,16.6-6.9l25,15.4l49.2-49.2l-15.4-25c2.6-5.4,4.9-10.9,6.9-16.6l14.1-3.4v157.8H467.6z M467.6,184.4v23.3
		l-25.5,6.1l-1.2,4c-2.3,7.6-5.3,14.9-9,21.7l-2,3.7l13.7,22.3l-32.9,32.9l-22.3-13.7l-3.7,2c-6.8,3.6-14.1,6.7-21.7,9l-4,1.2
		l-6.1,25.5h-46.7l-6.1-25.5l-4-1.2c-7.6-2.3-15-5.3-21.7-9l-3.7-2l-22.3,13.7l-32.9-32.9l13.7-22.3l-2-3.7
		c-3.6-6.8-6.7-14.1-9-21.7l-1.2-4l-25.5-6.1v-46.7L217,155l1.2-4c2.3-7.6,5.3-14.9,9-21.7l2-3.7l-13.7-22.3l32.9-32.9L270.7,84
		l3.7-2c6.8-3.6,14.1-6.7,21.7-9l4-1.2l6.1-25.5h46.7l6.1,25.5l4,1.2c7.6,2.3,14.9,5.3,21.7,9l3.7,2l22.3-13.7l32.9,32.9l-13.7,22.3
		l2,3.7c3.6,6.8,6.7,14.1,9,21.7l1.2,4l25.5,6.1V184.4z M329.6,82.7c-56.1,0-101.7,45.6-101.7,101.7S273.5,286,329.6,286
		s101.7-45.6,101.7-101.7S385.7,82.7,329.6,82.7z M329.6,271.5c-48,0-87.1-39.1-87.1-87.1s39.1-87.1,87.1-87.1s87.1,39.1,87.1,87.1
		S377.6,271.5,329.6,271.5z M271.5,191.6H257v-14.5h14.5V191.6z M286,177.1h116.2v14.5H286V177.1z M300.6,206.2h87.1v14.5h-87.1
		V206.2z M271.5,206.2H286v14.5h-14.5V206.2z M387.7,162.6h-87.1v-14.5h87.1V162.6z M286,162.6h-14.5v-14.5H286V162.6z M191.6,278.8
		h-43.6v43.6h-14.5V220.7H90v101.7H75.5v-138H60.9v152.5h145.2v-14.5h-14.5V278.8z M162.6,293.3h14.5v29h-14.5V293.3z M104.5,235.2
		H119v87.1h-14.5V235.2z"/>
</g>
<g id="_x34_" class="st0">
	<g class="st1">
		<g>
			<g>
				<path class="st2" d="M417.4,19c-42.8,0-77.6,34.8-77.6,77.6s34.8,77.6,77.6,77.6S495,139.4,495,96.6S460.2,19,417.4,19z
					 M417.4,155.7c-32.6,0-59.1-26.5-59.1-59.1s26.5-59.1,59.1-59.1s59.1,26.5,59.1,59.1S450,155.7,417.4,155.7z"/>
			</g>
		</g>
		<g>
			<g>
				<path class="st2" d="M314,158.4c-1.7-1.7-4.1-2.7-6.5-2.7s-4.8,1-6.5,2.7c-1.7,1.7-2.7,4.1-2.7,6.5s1,4.8,2.7,6.5
					c1.7,1.7,4.1,2.7,6.5,2.7s4.8-1,6.5-2.7c1.7-1.7,2.7-4.1,2.7-6.5S315.7,160.2,314,158.4z"/>
			</g>
		</g>
		<g>
			<g>
				<path class="st2" d="M391.5,201.1c-5.1,0-9.2,4.1-9.2,9.2v41.4H149.5v-77.6h109c5.1,0,9.2-4.1,9.2-9.2s-4.1-9.2-9.2-9.2H140.2
					c-5.1,0-9.2,4.1-9.2,9.2V261c0,5.1,4.1,9.2,9.2,9.2h251.3c5.1,0,9.2-4.1,9.2-9.2v-50.7C400.8,205.3,396.6,201.1,391.5,201.1z"/>
			</g>
		</g>
		<g>
			<g>
				<path class="st2" d="M391.5,347.9H288.3c-5.1,0-9.2,4.1-9.2,9.2s4.1,9.2,9.2,9.2h103.3c5.1,0,9.2-4.1,9.2-9.2
					S396.6,347.9,391.5,347.9z"/>
			</g>
		</g>
		<g>
			<g>
				<path class="st2" d="M391.5,299.8H288.3c-5.1,0-9.2,4.1-9.2,9.2s4.1,9.2,9.2,9.2h103.3c5.1,0,9.2-4.1,9.2-9.2
					S396.6,299.8,391.5,299.8z"/>
			</g>
		</g>
		<g>
			<g>
				<path class="st2" d="M391.5,395.9H288.3c-5.1,0-9.2,4.1-9.2,9.2s4.1,9.2,9.2,9.2h103.3c5.1,0,9.2-4.1,9.2-9.2
					S396.6,395.9,391.5,395.9z"/>
			</g>
		</g>
		<g>
			<g>
				<path class="st2" d="M243.5,299.8h-51.6c-5.1,0-9.2,4.1-9.2,9.2s4.1,9.2,9.2,9.2h42.4v77.6h-94c-5.1,0-9.2,4.1-9.2,9.2
					s4.1,9.2,9.2,9.2h103.3c5.1,0,9.2-4.1,9.2-9.2v-96.1C252.7,304,248.6,299.8,243.5,299.8z"/>
			</g>
		</g>
		<g>
			<g>
				<path class="st2" d="M435.9,205.2c-5.1,0-9.2,4.1-9.2,9.2v79.7c0,5.1,4.1,9.2,9.2,9.2s9.2-4.1,9.2-9.2v-79.7
					C445.1,209.3,441,205.2,435.9,205.2z"/>
			</g>
		</g>
		<g>
			<g>
				<path class="st2" d="M442.4,324.7c-1.7-1.7-4.1-2.7-6.5-2.7s-4.8,1-6.5,2.7c-1.7,1.7-2.7,4.1-2.7,6.5s1,4.8,2.7,6.5
					c1.7,1.7,4.1,2.7,6.5,2.7s4.8-1,6.5-2.7c1.7-1.7,2.7-4.1,2.7-6.5S444.1,326.4,442.4,324.7z"/>
			</g>
		</g>
		<g>
			<g>
				<path class="st2" d="M435.9,363.3c-5.1,0-9.2,4.1-9.2,9.2v91.7c0,5.1-4.1,9.2-9.2,9.2h-303c-5.1,0-9.2-4.1-9.2-9.2v-54.6
					l55.9-43.5c10-7.8,14.7-20.4,12.1-32.9c-1.9-9.2-7.7-17.2-15.8-22c-8.1-4.7-17.9-5.8-26.9-2.9l-37.4,12.1
					c-4.9,1.6-7.5,6.8-5.9,11.6c1.6,4.9,6.8,7.5,11.6,5.9l37.4-12.1c4-1.3,8.2-0.8,11.9,1.3c3.7,2.1,6.1,5.6,7,9.7
					c1.1,5.5-0.9,11.1-5.4,14.5l-59.5,46.2c-2.3,1.7-3.6,4.4-3.6,7.3v59.1v2.9c0,0.7,0.1,1,0.3,0.8c1.8,13.5,13.4,24,27.5,24h303
					c15.3,0,27.7-12.4,27.7-27.7v-91.7C445.1,367.4,441,363.3,435.9,363.3z"/>
			</g>
		</g>
		<g>
			<g>
				<path class="st2" d="M303.2,81.8H114.4c-15.3,0-27.7,12.4-27.7,27.7v113l-63.1,95.8c-1,1.5-1.5,3.3-1.5,5.1v159.3
					c0,5.1,4.1,9.2,9.2,9.2s9.2-4.1,9.2-9.2V326.2l46.2-70.1v38c0,5.1,4.1,9.2,9.2,9.2s9.2-4.1,9.2-9.2V109.5c0-5.1,4.1-9.2,9.2-9.2
					h188.8c5.1,0,9.2-4.1,9.2-9.2S308.3,81.8,303.2,81.8z"/>
			</g>
		</g>
		<g>
			<g>
				<path class="st2" d="M452.4,75.1c-3.6-3.6-9.5-3.6-13.1,0l-23.8,23.8l-8.6-8.6c-3.6-3.6-9.5-3.6-13.1,0c-3.6,3.6-3.6,9.5,0,13.1
					l15.2,15.2c1.8,1.8,4.2,2.7,6.5,2.7s4.7-0.9,6.5-2.7l30.3-30.3C456,84.6,456,78.8,452.4,75.1z"/>
			</g>
		</g>
	</g>
</g>
<g id="_x33_" class="st0">
	<g class="st1">
		<path class="st2" d="M470.8,257.7c0-4.2-5.4-7-9.6-7H450c-35,0-65.8-15.4-88.2-42l-1.4-1.4c-2.8-2.8-8.4-2.8-11.2,0l-1.4,1.4
			c-22.4,26.6-54.6,42-88.2,42h-11.2c-4.2,0-7,2.8-7,7v123.2c0,29.4,15.4,57.4,42,72.8l68.6,39.2c1.4,1.4,2.8,1.4,4.2,1.4
			c1.4,0,2.8-1.4,4.2-1.4l68.6-39.2c25.2-14,42-42,42-72.8L470.8,257.7z M457,380.9c0,25.2-14,47.6-35,60.2l-64.4,36.4l-64.4-36.4
			c-21-12.6-35-35-35-60.2V264.7h4.2c36.4,0,70-15.4,95.2-42c23.8,26.6,58.8,42,95.2,42h4.2V380.9z"/>
		<g>
			<path class="st2" d="M354.8,379.5l-14-14l-11.2,11.2l22.4,22.4c1.4,1.4,4.2,2.8,5.6,2.8h1.4c2.8-1.4,4.2-2.8,5.6-5.6l23.8-77
				l-14-4.2L354.8,379.5z"/>
			<path class="st2" d="M357.6,271.7c-46.2,0-84,37.8-84,84s37.8,84,84,84c46.2,0,84-36.4,84-84
				C441.6,309.5,403.8,271.7,357.6,271.7z M357.6,424.3c-37.8,0-68.6-30.8-68.6-68.6s30.8-68.6,68.6-68.6
				c37.8,0,68.6,30.8,68.6,68.6S395.4,424.3,357.6,424.3z"/>
		</g>
		<path class="st2" d="M385.6,19.7H80.4c-4.2,0-7,4.2-7,8.4v22.4H51c-5.6,0-8.4,4.2-8.4,8.4v428.4c0,4.2,4.2,7,8.4,7h260.4v-14h-252
			v-413H289v53.2c0,4.2,2.8,7,7,7h53.2v60.2h15.4v-68.6c0-2.8-1.4-4.2-2.8-5.6l-61.6-60.2c-1.4-1.4-2.8-2.8-5.6-2.8H88.8V35.1h288.4
			v168h15.4v-175C392.6,22.5,389.8,19.7,385.6,19.7z M303,77.1l35,35h-35V77.1z"/>
		<rect x="74.8" y="417.3" class="st2" width="152.6" height="15.4"/>
		<rect x="74.8" y="448.1" class="st2" width="152.6" height="15.4"/>
		<rect x="74.8" y="386.5" class="st2" width="152.6" height="15.4"/>
		<rect x="74.8" y="295.5" class="st2" width="152.6" height="15.4"/>
		<rect x="74.8" y="264.7" class="st2" width="152.6" height="15.4"/>
		<rect x="74.8" y="233.9" class="st2" width="152.6" height="15.4"/>
		<rect x="74.8" y="203.1" class="st2" width="198.8" height="15.4"/>
		<rect x="74.8" y="172.3" class="st2" width="198.8" height="15.4"/>
		<rect x="74.8" y="141.5" class="st2" width="198.8" height="15.4"/>
		<rect x="81.8" y="81.3" class="st2" width="15.4" height="15.4"/>
		<rect x="112.6" y="81.3" class="st2" width="15.4" height="15.4"/>
		<rect x="143.4" y="81.3" class="st2" width="15.4" height="15.4"/>
		<rect x="172.8" y="81.3" class="st2" width="99.4" height="15.4"/>
	</g>
</g>
<g id="_x32_" class="st0">
	<g class="st1">
		<path class="st2" d="M371.7,248.2c-46.3,0-90.4,22.1-118.2,59.1l-8.2,10.9l8.2,10.9c27.8,37,71.9,59.1,118.2,59.1
			s90.4-22.1,118.2-59.1l8.2-10.9l-8.2-10.9C462,270.3,417.9,248.2,371.7,248.2z M426.1,318.2c0,30-24.4,54.4-54.4,54.4
			c-30,0-54.4-24.4-54.4-54.4s24.4-54.4,54.4-54.4C401.7,263.8,426.1,288.2,426.1,318.2z M265.9,319.8l-1.2-1.6l1.2-1.6
			c13.1-17.5,30.3-31.2,49.8-40.3c-8.7,11.7-14,26.1-14,41.9s5.2,30.1,14,41.9C296.2,351,279,337.2,265.9,319.8z M477.4,319.8
			c-13.1,17.5-30.3,31.2-49.8,40.3c8.7-11.7,14-26.1,14-41.9s-5.2-30.1-14-41.9c19.4,9.1,36.6,22.8,49.8,40.3l1.2,1.6L477.4,319.8z
			 M371.7,357.1c21.5,0,38.9-17.4,38.9-38.9s-17.4-38.9-38.9-38.9c-21.5,0-38.9,17.4-38.9,38.9S350.2,357.1,371.7,357.1z
			 M371.7,294.9c12.8,0,23.3,10.5,23.3,23.3s-10.5,23.3-23.3,23.3c-12.8,0-23.3-10.5-23.3-23.3S358.8,294.9,371.7,294.9z
			 M107.3,320.1v21.4H91.8v15.6h15.6v101.1c0,21.5,17.4,38.9,38.9,38.9s38.9-17.4,38.9-38.9V357.1h15.6v-15.6h-15.6v-21.4
			c51.6-15.9,89.6-62.6,92.9-118.6h218.1V15h-46.7V186h-15.6v-140h-46.7v140h-15.6V77.2H325V186h-15.6v-77.8h-46.7v23.4
			c-22.3-41.6-66.2-70.1-116.6-70.1C73.3,61.6,14,120.9,14,193.8C14,253.2,53.4,303.5,107.3,320.1z M465,30.5h15.6V186H465V30.5z
			 M402.8,61.6h15.6V186h-15.6V61.6z M340.6,92.7h15.6V186h-15.6V92.7z M169.5,458.2c0,12.8-10.5,23.3-23.3,23.3
			c-12.8,0-23.3-10.5-23.3-23.3V357.1h46.7V458.2z M169.5,341.5h-46.7v-17.7c7.6,1.4,15.4,2.1,23.3,2.1c8,0,15.7-0.9,23.3-2.1V341.5
			z M278.4,123.8h15.6V186h-15.6V123.8z M146.2,77.2c64.3,0,116.6,52.3,116.6,116.6s-52.3,116.6-116.6,116.6S29.6,258.1,29.6,193.8
			S81.8,77.2,146.2,77.2z M146.2,294.9c55.7,0,101.1-45.4,101.1-101.1S201.9,92.7,146.2,92.7S45.1,138.1,45.1,193.8
			S90.5,294.9,146.2,294.9z M146.2,108.3c47.1,0,85.5,38.4,85.5,85.5s-38.4,85.5-85.5,85.5s-85.5-38.4-85.5-85.5
			S99,108.3,146.2,108.3z M154,201.6h-15.6V186H154V201.6z M185.1,201.6h-15.6V186h15.6V201.6z M216.2,201.6h-15.6V186h15.6V201.6z
			 M122.9,201.6h-15.6V186h15.6V201.6z M91.8,201.6H76.2V186h15.6V201.6z"/>
	</g>
</g>
<g id="_x31_">
	<g>
		<g>
			<path class="st2" d="M259.8,29.8c4.5,0,8.9-3,8.9-8.9c0-4.5-2.8-8.5-8.7-8.9c-4.2-0.3-9.6,3.7-9.2,8.9
				C250.9,25.3,253.8,29.8,259.8,29.8z"/>
			<path class="st2" d="M209.2,101.2c-3,3-3,10.4,0,13.4l26.8,26.8c3,1.5,4.5,3,7.4,3c3,0,6-1.5,7.4-3l53.6-53.6c3-3,3-10.4,0-13.4
				c-3-3-10.4-3-13.4,0l-47.6,47.6l-20.8-20.8C219.6,98.3,212.2,98.3,209.2,101.2z"/>
			<path class="st2" d="M300,20.8c-6-3-11.9,0-13.4,4.5c-3,6,0,11.9,4.5,13.4c28.3,11.9,46.2,40.2,46.2,70
				c0,43.2-34.2,77.4-77.4,77.4c-43.2,0-77.4-34.2-77.4-77.4c0-29.8,16.4-58.1,44.7-70c4.5-3,6-8.9,4.5-13.4c-3-4.5-8.9-6-13.4-4.5
				C183.9,35.7,161.5,70,163,108.7c0,53.6,43.2,96.8,96.8,96.8s96.8-43.2,96.8-96.8C356.6,71.5,334.2,35.7,300,20.8z"/>
		</g>
		<g>
			<g>
				<path class="st2" d="M256.8,443.7c-3,0-6,1.5-7.4,3c-1.5,3-3,4.5-3,7.4c0,3,1.5,6,3,7.4c3,1.5,4.5,3,7.4,3c3,0,6-1.5,7.4-3
					c3-3,3-4.5,3-7.4c0-3-1.5-6-3-7.4C261.3,445.2,259.8,443.7,256.8,443.7z M445.9,402c6-7.4,8.9-14.9,8.9-25.3v-58.1
					c0-4.5-3-8.9-8.9-8.9h-43.2c-19.4,0-35.7,16.4-35.7,35.7v31.3c0,8.9,4.5,17.9,8.9,25.3c-7.4,1.5-13.4,3-19.4,6
					c-11.9-19.4-34.2-32.8-59.6-35.7c8.9-8.9,14.9-22.3,14.9-37.2v-75.9c0-4.5-3-8.9-8.9-8.9h-58.1c-23.8,0-44.7,19.4-44.7,44.7
					v41.7c0,13.4,6,26.8,14.9,37.2c-23.8,3-46.2,16.4-59.6,35.7c-6-3-13.4-4.5-19.4-6c6-7.4,8.9-14.9,8.9-25.3v-58.1
					c0-4.5-3-8.9-8.9-8.9H93.1c-19.4,0-35.7,16.4-35.7,35.7v31.3c0,8.9,3,17.9,8.9,25.3c-29.8,4.5-52.1,29.8-52.1,61v28.3
					c0,4.5,3,8.9,8.9,8.9h466c4.5,0,8.9-3,8.9-8.9l0-29.8C498,433.2,475.7,406.4,445.9,402z M76.7,345.4c0-8.9,7.4-16.4,16.4-16.4
					h32.8v11.9c0,6-4.5,10.4-8.9,10.4H76.7V345.4z M75.2,369.2h40.2c3,0,7.4,0,10.4-1.5v8.9c0,13.4-11.9,25.3-25.3,25.3
					s-25.3-11.9-25.3-25.3V369.2z M106.5,421.3l-6,6l-6-6H106.5z M142.2,454.1v29.8H32v-19.4c0-22.3,14.9-40.2,35.7-43.2l25.3,25.3
					c3,1.5,4.5,3,7.4,3s6-1.5,7.4-3l25.3-25.3c4.5,1.5,8.9,1.5,13.4,4.5C143.7,434.7,142.2,443.7,142.2,454.1z M219.6,293.3
					c0-14.9,11.9-26.8,26.8-26.8h49.1v19.4c0,8.9-7.4,17.9-17.9,17.9h-58.1V293.3z M219.6,321.6h58.1c6,0,13.4-1.5,17.9-4.5V335
					c0,20.8-17.9,37.2-38.7,37.2s-37.2-16.4-37.2-37.2V321.6z M274.7,391.6l-16.4,16.4l-16.4-16.4H274.7z M352.1,454.1v26.8H160
					v-19.4h62.5c4.5,0,8.9-3,8.9-8.9c0-4.5-3-8.9-8.9-8.9h-61c4.5-26.8,26.8-49.1,53.6-52.1l34.2,37.2c3,1.5,4.5,3,7.4,3
					c3,0,6-1.5,7.4-3l37.2-37.2C331.3,396,355.1,422.8,352.1,454.1z M390.8,345.4c0-8.9,7.4-16.4,16.4-16.4h32.8v11.9
					c0,6-4.5,10.4-8.9,10.4h-40.2V345.4z M389.3,369.2h40.2c3,0,7.4,0,10.4-1.5v8.9c0,13.4-11.9,25.3-25.3,25.3
					c-13.4,0-23.8-11.9-25.3-25.3V369.2z M420.6,421.3l-6,6l-6-6H420.6z M483.1,464.5v19.4H372.9v-29.8c0-10.4-1.5-19.4-4.5-28.3
					c4.5-1.5,8.9-4.5,13.4-4.5l25.3,25.3c3,1.5,4.5,3,7.4,3c3,0,6-1.5,7.4-3l25.3-25.3C468.2,424.3,484.6,442.2,483.1,464.5z"/>
			</g>
		</g>
	</g>
</g>
</svg>
